<svg height="512pt" viewBox="-27 0 512 512" width="512pt" xmlns="http://www.w3.org/2000/svg">
    <path d="m313 438c-2.628906 0-5.210938 1.070312-7.070312 2.929688-1.859376 1.859374-2.929688 4.441406-2.929688 7.070312s1.070312 5.210938 2.929688 7.070312c1.859374 1.859376 4.441406 2.929688 7.070312 2.929688s5.210938-1.070312 7.070312-2.929688c1.859376-1.859374 2.929688-4.441406 2.929688-7.070312s-1.070312-5.210938-2.929688-7.070312c-1.859374-1.859376-4.441406-2.929688-7.070312-2.929688zm0 0"/>
    <path d="m448 122c5.523438 0 10-4.476562 10-10v-48c0-5.523438-4.476562-10-10-10h-30v-44c0-5.523438-4.476562-10-10-10s-10 4.476562-10 10v492c0 5.523438 4.476562 10 10 10s10-4.476562 10-10v-44h30c5.523438 0 10-4.476562 10-10v-48c0-5.523438-4.476562-10-10-10h-30v-44h30c5.523438 0 10-4.476562 10-10v-48c0-5.523438-4.476562-10-10-10h-30v-44h30c5.523438 0 10-4.476562 10-10v-48c0-5.523438-4.476562-10-10-10h-30v-44zm-10-48v28h-20v-28zm0 336v28h-20v-28zm0-112v28h-20v-28zm0-112v28h-20v-28zm0 0"/>
    <path d="m357 0c-5.523438 0-10 4.476562-10 10v44h-167c-5.523438 0-10 4.476562-10 10s4.476562 10 10 10h167v28h-236v-92c0-5.523438-4.476562-10-10-10s-10 4.476562-10 10v492c0 5.523438 4.476562 10 10 10s10-4.476562 10-10v-44h160.667969c5.519531 0 10-4.476562 10-10s-4.480469-10-10-10h-160.667969v-28h236v92c0 5.523438 4.476562 10 10 10s10-4.476562 10-10v-492c0-5.523438-4.476562-10-10-10zm-246 234h236v44h-236zm0-20v-28h236v28zm0 84h236v28h-236zm236-176v44h-236v-44zm-236 268v-44h236v44zm0 0"/>
    <path d="m50 0c-5.523438 0-10 4.476562-10 10v44h-30c-5.523438 0-10 4.476562-10 10v48c0 5.523438 4.476562 10 10 10h30v44h-30c-5.523438 0-10 4.476562-10 10v48c0 5.523438 4.476562 10 10 10h30v44h-30c-5.523438 0-10 4.476562-10 10v48c0 5.523438 4.476562 10 10 10h30v44h-30c-5.523438 0-10 4.476562-10 10v48c0 5.523438 4.476562 10 10 10h30v44c0 5.523438 4.476562 10 10 10s10-4.476562 10-10v-492c0-5.523438-4.476562-10-10-10zm-30 102v-28h20v28zm0 112v-28h20v28zm0 112v-28h20v28zm0 112v-28h20v28zm0 0"/>
    <path d="m141.328125 74c2.640625 0 5.210937-1.070312 7.070313-2.929688 1.859374-1.859374 2.929687-4.441406 2.929687-7.070312s-1.066406-5.210938-2.929687-7.070312c-1.859376-1.859376-4.429688-2.929688-7.070313-2.929688-2.628906 0-5.207031 1.070312-7.066406 2.929688-1.863281 1.859374-2.933594 4.441406-2.933594 7.070312s1.070313 5.210938 2.933594 7.070312c1.859375 1.859376 4.4375 2.929688 7.066406 2.929688zm0 0"/>
</svg>
