<svg height="512pt" viewBox="0 -56 512 511" width="512pt" xmlns="http://www.w3.org/2000/svg">
    <path d="m499.972656 170.308594-101.945312-35.585938v-50.09375c0-7.621094-4.886719-14.273437-12.15625-16.554687l-122.9375-38.578125v-21.5625c0-4.105469-3.328125-7.433594-7.433594-7.433594s-7.433594 3.328125-7.433594 7.433594v21.5625l-122.9375 38.578125c-7.269531 2.28125-12.15625 8.933593-12.15625 16.554687v50.445313l-100.945312 35.234375c-7.199219 2.320312-12.027344 8.9375-12.027344 16.511718v204.960938c0 4.105469 3.328125 7.433594 7.433594 7.433594h497.132812c4.105469 0 7.433594-3.328125 7.433594-7.433594v-204.960938c0-7.574218-4.828125-14.191406-12.027344-16.511718zm-485.101562 16.511718c0-1.085937.695312-2.039062 1.734375-2.363281.074219-.023437.152343-.046875.226562-.074219l96.140625-33.558593v233.523437h-9.492187v-130.636718c0-21.542969-17.527344-39.070313-39.070313-39.070313-21.542968 0-39.066406 17.527344-39.066406 39.070313v130.636718h-10.472656zm73.738281 149.585938h-48.394531v-82.695312c0-13.34375 10.855468-24.199219 24.195312-24.199219 13.34375 0 24.199219 10.855469 24.199219 24.199219zm-48.394531 47.941406v-33.070312h48.394531v33.070312zm128.300781-81.007812h173.96875v81.007812h-5.824219v-56.121094c0-5.742187-4.667968-10.410156-10.410156-10.410156h-26.4375c-5.738281 0-10.40625 4.667969-10.40625 10.410156v56.121094h-10.277344v-56.121094c0-5.742187-4.671875-10.410156-10.410156-10.410156h-26.4375c-5.738281 0-10.410156 4.667969-10.410156 10.410156v56.121094h-10.277344v-56.121094c0-5.742187-4.667969-10.410156-10.40625-10.410156h-26.4375c-5.742188 0-10.410156 4.667969-10.410156 10.410156v56.121094h-5.824219zm153.273437 81.007812h-17.515624v-51.660156h17.515624zm-57.53125 0h-17.515624v-51.660156h17.515624zm-57.53125 0h-17.515624v-51.660156h17.511718v51.660156zm215.886719 0v-130.636718c0-13.34375 10.855469-24.199219 24.195313-24.199219 13.34375 0 24.199218 10.855469 24.199218 24.199219v82.695312h-23.074218c-4.105469 0-7.433594 3.328125-7.433594 7.4375 0 4.105469 3.328125 7.433594 7.433594 7.433594h23.074218v33.066406h-48.394531zm74.515625 0h-11.25v-130.636718c0-21.542969-17.527344-39.070313-39.070312-39.070313-21.542969 0-39.066406 17.527344-39.066406 39.070313v130.636718h-9.714844v-163.050781c0-4.105469-3.328125-7.433594-7.433594-7.433594-4.109375 0-7.4375 3.328125-7.4375 7.433594v163.050781h-25.800781v-184.316406c0-56.164062-45.691407-101.855469-101.855469-101.855469-22.894531 0-44.519531 7.417969-62.539062 21.453125-3.242188 2.523438-3.820313 7.195313-1.296876 10.433594 2.519532 3.242188 7.195313 3.820312 10.433594 1.296875 15.382813-11.980469 33.851563-18.316406 53.402344-18.316406 47.964844 0 86.984375 39.023437 86.984375 86.984375v88.441406h-173.96875v-88.441406c0-16.523438 4.648437-32.601563 13.449219-46.488282 2.199218-3.46875 1.171875-8.0625-2.300782-10.261718-3.46875-2.195313-8.0625-1.167969-10.257812 2.300781-10.3125 16.273437-15.761719 35.101563-15.761719 54.449219v184.316406h-25.800781v-299.714844c0-1.089844.695312-2.039062 1.734375-2.367187l125.921875-39.515625 125.921875 39.515625c1.039063.328125 1.734375 1.277343 1.734375 2.367187v104.207032c0 4.105468 3.328125 7.433593 7.4375 7.433593 4.105469 0 7.433594-3.328125 7.433594-7.433593v-38.363282l97.140625 33.910156c.074219.023438.152343.050782.226562.074219 1.039063.324219 1.734375 1.277344 1.734375 2.363281zm0 0"/>
    <path d="m254.769531 236.585938c26.328125 0 47.75-21.421876 47.75-47.753907 0-26.328125-21.421875-47.75-47.75-47.75-26.332031 0-47.753906 21.421875-47.753906 47.75 0 26.332031 21.421875 47.753907 47.753906 47.753907zm0-80.632813c18.128907 0 32.878907 14.75 32.878907 32.878906 0 18.132813-14.75 32.882813-32.878907 32.882813-18.132812 0-32.882812-14.75-32.882812-32.882813 0-18.128906 14.75-32.878906 32.882812-32.878906zm0 0"/>
    <path d="m239.417969 200.828125h16.082031c4.105469 0 7.433594-3.328125 7.433594-7.4375v-16.785156c0-4.109375-3.328125-7.4375-7.433594-7.4375s-7.433594 3.328125-7.433594 7.4375v9.351562h-8.644531c-4.109375 0-7.4375 3.328125-7.4375 7.433594 0 4.109375 3.328125 7.4375 7.433594 7.4375zm0 0"/>
</svg>
