<svg version="1.1" xmlns="http://www.w3.org/2000/svg"
     viewBox="0 0 512 512">
    <path d="M480.578,496.361l-69.405-95.432c18.57-6.606,31.904-24.349,31.904-45.156V47.918C443.077,21.496,421.581,0,395.158,0
			H116.842C90.421,0,68.923,21.496,68.923,47.918v307.855c0,20.807,13.335,38.552,31.904,45.156l-69.405,95.432
			c-3.199,4.398-2.227,10.556,2.171,13.754c1.749,1.272,3.775,1.885,5.784,1.885c3.042,0,6.045-1.407,7.97-4.056l18.534-25.484
			H446.12l18.533,25.484c1.927,2.649,4.927,4.056,7.97,4.056c2.009,0,4.036-0.612,5.784-1.885
			C482.805,506.917,483.777,500.76,480.578,496.361z M88.616,355.773V47.918c0-15.564,12.663-28.226,28.226-28.226h278.317
			c15.564,0,28.226,12.662,28.226,28.226v307.855c0,15.564-12.662,28.226-28.226,28.226H116.842
			C101.279,383.999,88.616,371.337,88.616,355.773z M403.154,423.384H108.847l14.321-19.692h265.665L403.154,423.384z
			 M80.203,462.768l14.321-19.692h322.952l14.321,19.692H80.203z"/>
    <path d="M367.261,49.231H144.739c-20.088,0-36.431,16.343-36.431,36.431v124.061c0,20.088,16.343,36.431,36.431,36.431h222.523
			c20.088,0,36.431-16.343,36.431-36.431V85.661C403.692,65.573,387.349,49.231,367.261,49.231z M384,209.723
			c0,9.23-7.509,16.738-16.738,16.738H144.739c-9.23,0-16.738-7.509-16.738-16.738v-2.954h29.538c5.437,0,9.846-4.409,9.846-9.846
			c0-5.437-4.409-9.846-9.846-9.846H128V85.661c0-9.23,7.509-16.738,16.738-16.738h222.523c9.23,0,16.738,7.509,16.738,16.738
			V209.723z"/>
    <path d="M344.615,275.692c-21.717,0-39.385,17.668-39.385,39.385c0,21.717,17.668,39.385,39.385,39.385S384,336.793,384,315.076
			C384,293.36,366.332,275.692,344.615,275.692z M344.615,334.769c-10.858,0-19.692-8.834-19.692-19.692s8.834-19.692,19.692-19.692
			s19.692,8.834,19.692,19.692S355.475,334.769,344.615,334.769z"/>
    <path d="M167.385,275.692c-21.717,0-39.385,17.668-39.385,39.385c0,21.717,17.668,39.385,39.385,39.385
			c21.717,0,39.385-17.668,39.385-39.385C206.769,293.36,189.101,275.692,167.385,275.692z M167.385,334.769
			c-10.858,0-19.692-8.834-19.692-19.692s8.834-19.692,19.692-19.692c10.858,0,19.692,8.834,19.692,19.692
			S178.244,334.769,167.385,334.769z"/>
    <path d="M194.037,189.961c-1.83-1.831-4.371-2.885-6.96-2.885s-5.13,1.053-6.961,2.885c-1.831,1.832-2.885,4.372-2.885,6.961
			s1.053,5.13,2.885,6.96c1.832,1.832,4.373,2.886,6.961,2.886c2.59,0,5.13-1.054,6.96-2.886c1.832-1.83,2.886-4.371,2.886-6.96
			S195.87,191.793,194.037,189.961z"/>
</svg>
